<?xml version="1.0" encoding="UTF-8"?>
<svg width="180" height="180" viewBox="0 0 24 24" fill="none" xmlns="http://www.w3.org/2000/svg">
  <rect width="180" height="180" rx="40" fill="#050505"/>
  <path d="M4.5 16.5c-1.5 1.26-2 5-2 5s3.74-.5 5-2c.71-.84.7-2.13-.09-2.91a2.18 2.18 0 0 0-2.91-.09z" fill="#00E599"/>
  <path d="m12 15-3-3a22 22 0 0 1 2-3.95A12.88 12.88 0 0 1 22 2c0 2.72-.78 7.5-6 11a22.35 22.35 0 0 1-4 2z" fill="#00E599"/>
  <path d="m9 12 4 4M12 16H9M13 21v-4.5a4.5 4.5 0 0 1 4.5-4.5" stroke="#00E599" stroke-width="1.5" stroke-linecap="round" stroke-linejoin="round" fill="none"/>
</svg>

